/* XPM */
static char *ddc1fea1e1d04aabae04b7f613fa0c74vN97C4B1ompVQ01z[] = {
/* columns rows colors chars-per-pixel */
"64 64 252 2 ",
"   c #050504",
".  c #0B0504",
"X  c #050B05",
"o  c #0A0B06",
"O  c #0E0B0A",
"+  c #130504",
"@  c #1C0504",
"#  c #120B06",
"$  c #130C0B",
"%  c #1C0C0A",
"&  c #091507",
"*  c #061C09",
"=  c #171509",
"-  c #191413",
";  c #240504",
":  c #2B0504",
">  c #270A08",
",  c #2C0A09",
"<  c #340504",
"1  c #3B0504",
"2  c #340906",
"3  c #340B0A",
"4  c #3C0A09",
"5  c #29160B",
"6  c #3A120C",
"7  c #221312",
"8  c #2B1817",
"9  c #381A18",
"0  c #05230B",
"q  c #0C230C",
"w  c #042C0D",
"e  c #0B2B0D",
"r  c #17260C",
"t  c #132C0D",
"y  c #04330E",
"u  c #0B350F",
"i  c #14330E",
"p  c #1F2F11",
"a  c #053C11",
"s  c #083911",
"d  c #143C11",
"f  c #2C3012",
"g  c #332726",
"h  c #430504",
"j  c #4B0504",
"k  c #430B0A",
"l  c #490A09",
"z  c #530504",
"x  c #5B0504",
"c  c #570B09",
"v  c #47150D",
"b  c #481817",
"n  c #571615",
"m  c #630504",
"M  c #6C0706",
"N  c #7C0504",
"B  c #760807",
"V  c #691615",
"C  c #761815",
"Z  c #4A2B14",
"A  c #773013",
"S  c #492424",
"D  c #592727",
"F  c #513A3A",
"G  c #642929",
"H  c #66302E",
"J  c #673434",
"K  c #763737",
"L  c #7A3636",
"P  c #7D3B3B",
"I  c #044513",
"U  c #044B14",
"Y  c #0C4814",
"T  c #184915",
"R  c #085617",
"E  c #045C19",
"W  c #1B5418",
"Q  c #264614",
"!  c #2A5919",
"~  c #395017",
"^  c #07671B",
"/  c #17661B",
"(  c #07761E",
")  c #27681D",
"_  c #36701D",
"`  c #047A21",
"'  c #197926",
"]  c #256926",
"[  c #2E732E",
"{  c #485418",
"}  c #744B17",
"|  c #536A1C",
" . c #747A26",
".. c #7E4242",
"X. c #705B43",
"o. c #58604F",
"O. c #6A6A69",
"+. c #870706",
"@. c #930404",
"#. c #9A0404",
"$. c #960B0A",
"%. c #8A1007",
"&. c #861716",
"*. c #951515",
"=. c #A40404",
"-. c #A90808",
";. c #B60606",
":. c #A81818",
">. c #B91B1B",
",. c #AE2A14",
"<. c #862323",
"1. c #992A2A",
"2. c #853838",
"3. c #953535",
"4. c #A82727",
"5. c #B32323",
"6. c #BC2424",
"7. c #A83434",
"8. c #B73A35",
"9. c #C70606",
"0. c #D90505",
"q. c #DD0E0E",
"w. c #DC1A0D",
"e. c #C81817",
"r. c #CA1B1B",
"t. c #D41312",
"y. c #DB1212",
"u. c #DB1B14",
"i. c #D41C1C",
"p. c #DB1C1C",
"a. c #E50505",
"s. c #EB0404",
"d. c #E40D0C",
"f. c #EB0A0A",
"g. c #F40505",
"h. c #FA0303",
"j. c #F20805",
"k. c #F30A0A",
"l. c #FB0A0A",
"z. c #E71609",
"x. c #E41313",
"c. c #EA1212",
"v. c #E41B1B",
"b. c #ED1B1B",
"n. c #F61818",
"m. c #CE2812",
"M. c #E1201D",
"N. c #C72A29",
"B. c #D72727",
"V. c #C73939",
"C. c #D93A3A",
"Z. c #E92626",
"A. c #F62828",
"S. c #EA3838",
"D. c #F73736",
"F. c #FC3D3D",
"G. c #9F5D1D",
"H. c #A84E1B",
"J. c #8D6E1D",
"K. c #8E6D24",
"L. c #AC7038",
"P. c #D7503E",
"I. c #EA4436",
"U. c #844747",
"Y. c #8C5555",
"T. c #975151",
"R. c #B04A4A",
"E. c #9B6767",
"W. c #9F7070",
"Q. c #A77272",
"!. c #A57676",
"~. c #CE4F4F",
"^. c #E84F4E",
"/. c #FA4545",
"(. c #FA5858",
"). c #D07575",
"_. c #FA6F6D",
"`. c #058522",
"'. c #1C8A26",
"]. c #039526",
"[. c #318C34",
"{. c #06AB2B",
"}. c #09B92F",
"|. c #33AF34",
" X c #3BBC33",
".X c #498F29",
"XX c #589D2C",
"oX c #6C8527",
"OX c #778624",
"+X c #6A942D",
"@X c #57A62B",
"#X c #46B62E",
"$X c #4BAB32",
"%X c #55A738",
"&X c #46B833",
"*X c #60A32D",
"=X c #07CA33",
"-X c #18C934",
";X c #08D635",
":X c #19DB3B",
">X c #2BCB36",
",X c #3AC332",
"<X c #34C834",
"1X c #29D435",
"2X c #23DA36",
"3X c #27D93A",
"4X c #34D23B",
"5X c #08E63B",
"6X c #0DEC3C",
"7X c #14E43B",
"8X c #1AE33A",
"9X c #1BE439",
"0X c #12EB3B",
"qX c #06F63D",
"wX c #0AF33D",
"eX c #03FA3D",
"rX c #08F93F",
"tX c #11F03E",
"yX c #20E23D",
"uX c #2F8041",
"iX c #3BB245",
"pX c #629542",
"aX c #55AE4C",
"sX c #73AD54",
"dX c #1DDA42",
"fX c #30CF48",
"gX c #17E843",
"hX c #0CF541",
"jX c #05FB41",
"kX c #09F843",
"lX c #0BFB43",
"zX c #13F445",
"xX c #16F54B",
"cX c #17F84A",
"vX c #2CEA51",
"bX c #25FB58",
"nX c #31FC60",
"mX c #4CCB52",
"MX c #52D957",
"NX c #71CF66",
"BX c #49EE6B",
"VX c #858231",
"CX c #96A163",
"ZX c #8CCC78",
"AX c #848484",
"SX c #B38D8D",
"DX c #FB8E8E",
"FX c #FAA9A9",
"GX c #94EC9C",
"HX c #E3CECE",
"JX c #EFE7E7",
"KX c #FEFCFC",
/* pixels */
"wXkXkXkXxXhXxXkXkXkX5XhXjXeXqXjXqXjXeXeXeXeXjX` w U }.qX].w U ].qXrXeXeXeXeXeXeXjXeXqXwX0X9X:XgXzXtXcXcX9XzXvXvX9X3XdXMXvXMXNXBX",
"mXfXMXBXmXfXfXBXvXgX5XjXjXjXeXqXqXjXjXqXqXqXhX` w y ;X6X` y q =X0X0X9X9X9X2XyX2X:X>X,XG.oXG.K.L.L.).P.I._.F.(.D.b.v.c.Z./.F.F./.",
"X.o.iXaXfXiXfXnXBXdXhXhXjXqXeXeXjXwXhX5X:XdXdX` I T |.+X[ t = H K.u.u.C.F.A.F.A.B.x.p.v.Z.Z.M.S.F./.D.F./.D.F./.F.u.d.x.D.D.A.I.",
"fXdXgXxXvXdXgXgXgXdXdXgXdXhXwX7X5X5XdXwX7X:XdXU q e  XmX] f q -X%X<XaXmXZXNXMXsX%X%X%X+XaX%XpXsXNXNXZXsXZXZXZXCXNXCX$XfXmXvXvXMX",
"5X5X:XgX7XiXdXiXdX|.|.iXiXiX|.dX:XiX5X:X6X6XgX^ u U -XzX' s a dXgXgX:XzXcXbXcXbXdXgXgX6XxXgXdXhXbXbXbXnXlXcXjXcXrXwXwXeXjXwXeXrX",
"hXqX6X6X:XqX:XqXgXhX5X5XhXwX5X5XwXjXqXqXqXqXwX( a U jXkX`.y U {.6XhXzXrXcXrXkXrXrXqXqXeXrXrXeXeXeXeXeXeXeXlXeXeXeXeXeXeXqXeXeXeX",
"qXqXqXqXjXqXqXqXjX5XqXqXhXhXjXqXqXqXqXqXqXqXeXE * a qXeXE U a gXjXqXeXlXeXlXeXeXeXeXqXrXeXeXeXeXeXeXeXeXeXeXeXjXeXeXeXeXeXeXeXeX",
"qXwXqXqXqXqXqXqXqXjXjXqXqXqXjXeXeXjXqXeXeXeXqX^ I E eXeXU s ` hXeXeXeXjXeXeXeXeXeXeXeXeXeXeXeXeXeXeXeXeXeXeXeXeXeXeXeXeXeXeXeXeX",
"wXeXeXeXeXeXrXrXqXqXeXeXeXeXeXeXeXeXeXeXeXeXeXI w U eXeXa w U qXeXeXeXeXeXeXeXeXeXeXeXeXrXeXeXeXeXeXeXeXeXeXeXeXeXeXrXeXrXjXjXjX",
"eXwXwXwXwXwXeXeXqXeXeXeXeXeXeXeXeXeXeXeXeXeXeX( 0 ( eXeXU w ^ qXeXeXeXeXeXrXrXrXqXeXeXeXeXjXeXeXrXeXcXrXlXlXlXcXcXcXzXwX7X5XxXbX",
"@X#X#X9X<X9X9X9X6X0X0X9X9X6XwX0X0X0X0XwXeXqXwXI y E :X9XI y ^ qXeXeXjXqXeXrXrXqXwX6X0X:X0XgX9X7X6X0XzXzXcXcXzXzXzXbX0XwXqXjXhXjX",
"#X@X,X<X9X#X<X2X#X$X@XJ.OXG.m.j.w.a.z. .<X X XY 0 a 9X:XI I E eXeXeXeXqXrXqXwXwXrXeXeXrXeXqXeXqXrXrXqXrXkXwXqXeXrXeXrXeXqXeXeXqX",
"2X2X<X@X#XOXJ.m.w.j.j.j.j.z.w.w.OXG.J.OX,X@X-Xd 0 ^ 0X-XE 0 `.eXeXeXeXeXeXeXeXeXeXeXeXeXeXeXeXqXeXeXeXqXeXeXwXeXeXwXeXwXqXjXqXeX",
"0X0X9X,X2X2X,X9X@X1X9X1X0X2X0X9X2X0X2X0X9X0X7XI e I wX=Xa y E qXeXeXeXjXeXeXeXeXeXeXeXeXeXeXeXeXwXqX0X0X0X0X0X9X2X2X1X2X>X9X9XwX",
"wXeXeXeXqXqXeXqXeXeXeXqXqXeXqXeXeXeXqXeXeXeX5XR y ( eX].y a ].jXeXeXeXjXeXeXeXeXeXeXeXeXeXeXeXeXeXeXeXeXeXeXeXeXeXeXeXeXeXeXeXeX",
"eXeXeXeXeXeXeXeXeXeXeXeXeXeXeXeXeXeXeXeXeXeX5XI y ^ qX`.I y {.eXeXeXeXeXeXeXeXjXeXeXeXeXeXeXeXeXeXeXeXeXeXeXeXeXeXeXeXeXeXeXeXeX",
"eXeXeXeXeXeXeXeXeXeXeXeXeXeXeXeXeXeXeXeXeXeXeXU w ^ eXR w y =XeXeXeXeXeXeXeXeXeXeXeXeXqXeXeXeXeXeXqXeXeXeXeXqXeXqX5X5XqX=X}.=X{.",
"eXeXeXeXeXeXeXeXeXeXeXeXeXeXeXeXeXeXeXeXeXeX=XU I `.eX( y E 5XeXeXeXeXeXqX=X{.`.^ ].( ].`.^ `.E U E U ( U ( U U ^ y ^ I y R y y ",
"eXeXeXeXeXwXqXwXrXeXrX6XeXtX0XtXwXqX0XtXwXwX5Xy w ( 0XY 0 a :X9XwX>X`.R U u d U 0 0 y u 0 I 0 u u y * y u 0 0 Y 0 w w y I e y U ",
"wX0XwXwX0X9X9X2X3X1X>X,X1X#X>X#X>X#X<X@X,X>X|.T r ) &Xd 0 ]  X|.) d ) t d e i r u Q s f T t T q Q d p Q i R Y R Y ^ / R ' ( ^ '.",
"jXjXjXlXeXeXtXrXhXrXwXwX6XwXwX0X0X9XwX0XwX0X5XI y ^ {.I 0 a ^ U a * a I ( Y `.{.=X=X=X{.=X-X=X6X;XtX0X7X9X6XwXwXwX9X0XwX6X0X7X6X",
"kXbXcXcXtXrXwXrXzXhXrXwXeXqXeXrXqXeXtXwXwXwX5Xa w ( {.0 & y w w R E ^ }.5XeXwXqX6XqXwX0XqXhXwXqXeXeXqXwXtXeXrXrXeXrXeXeXeXeXqXqX",
"sXGXGXGXGXsXaXCXsX*X1X0XwXwXwXwXeX0XeXwXeX0X5XI y y 0 X X y w ^ ].;X0XwXqXeXqXwXwXwXwXqXhXeXkXkXqXwXeXrXeXlXlXrXeXqXeXeXwXwXqXqX",
"S._.(./.F.B.d.B.A.,.#X:XwXwX0X0XwX0XwX0X9XwX;Xy U 0 X X X I ( 6X0X0XwXqX0X0XtX0X0XwXwXwXzXkXhXkXwX6XwXrXlXlXlXrXwXwXwXwXeXwXeXqX",
"Z.A.n.F.B.e.e.>.:.&.n | ] ! _ ~ ~ { _ { ~ _ f r & &       q p Q ~ ~ ! ! ! [ uX[ ' ] ' ' uXuX[.] '.' ] ] [.' ) ' ( / R ^ R R ^ Y ",
"S b D D ..4 h l c c : : j h h 1 m h ; > ; ; 3 # . +       + + . . . # + $ O - $ O # # . $ $ # O O . X X o X X X X o         X X ",
"g S 7 b 8 , , > 6 , < l 4 < < @ 1 1 6 6 3 k : + . ;       + . + . . .     . .                       X       o         o   o .   ",
"b n C b $.n n C V V V b C *.N ;.%.:.:.B -.#.M @ + @ . . . + : @ + + . . . . . $       X X X X X X O & & o X # + + @ @ # + + + @ ",
"Z.A././._.(.V.Y.E.Y.....J D n n 9 V n 4 l < h . . @ +     + 1 1 1 2 x 6 8 f d Q i ! / '.( '.'.| .XG.0.@.t.:.~.:.*.;.*.N.A A } f ",
"(.DXJXKXKXKXQ.U.F $ - 7 7 7 7 % % 7 > , : 1 : @ . + + .   @ m +.{ | | |.|.$X X>X>X'..X! | %.$.+.#.M M 4 n H 9 F p t p Y W d t u ",
"o.O.o.O.O.AXF 8 $           . $ + ; . + @ @ : + . . +   + . & i = a t u q & e = = > 1 < : 1 % % o 5 $ & * = u r u * & 0 q 0 * q ",
"O O O $ - $ $ . X X                 X   . .                   X   & X X o . . . + . . . + # X X & X & & & X o * & X X & = o 5 $ ",
". .   . .   . . . . .                                         X       .         . . . . .   X X X X o X X X X # O . . + + . + . ",
"+ + @ @ + @ . + @ + + . + + . . .       . .   X               o . . .     . . . . .   X   .   X X     X . . . . . . . X .   .   ",
"h x 4 k 1 < x : < : < N < h j < z ; + + ; h 3 @     X & +     @ + ; + ; + + @ + ; + ; # . + @ ; $ @ @ @ : + @ $ . + + # + . @ + ",
"r.5.B.6.*.d.q.0.9.=.9.;.s.0.9.-.$.+.< < x ;.C ;     u [._ l + x =.;.9.@.t.9.#.;.+.-.B -.$.+.:.B C &.V C 9 S G b S S D S S S S S ",
"v.Z.B.S.B.h.h.h.h.h.h.s.h.h.h.h.l.;.1 j N g.s.< + o ! 2X<Xt r z j.h.h.h.h.h.h.h.j.h.g.j.h.f.s.d.f.f.t.>.>.e.e.>.e.t.>.e.5.e.5.>.",
"Z.n.n.A.b.g.h.h.h.h.g.g.h.h.h.h.h.9.: : @.h.h.: . + } #X,XW q i oXOXm.m.h.h.h.h.h.h.h.h.h.h.h.h.h.h.g.f.q.q.q.a.d.d.t.d.d.t.s.q.",
"B.i.p.p.N.d.q.d.f.q.q.y.d.q.f.h.h.+.z j +.h.j.@ . ; h.H.+X~ q u ) <X,X@XOXJ.H.j.s.j.h.g.h.h.h.h.h.h.g.g.q.d.d.q.s.f.d.f.d.f.d.f.",
"U.K U.P P P U.2.K L L K U.P 3.g.h.;.1 < N h.#.@ . h h.h.g.A 5 = / ,X>X9X1X2X#X<X#X+XJ.K.m.f.d.g.g.f.f.q.d.f.d.f.q.f.d.y.f.q.q.M ",
"P ..U.U.U...P P K K L L L L 5.k.h.;.z 1 #.s.@.. . h x.q.d.q.c ; 6 K.K.<X,X3X1X>X<X3X1X>X X&X@XXXOXG.H.m.m.e.u.u.u.d.q.d.:.x 2 2 ",
"7.7.7.7.4.4.3.5.1.5.>.1.1.5.f.h.h.#.h h #.0.z . ; c ~.p.i.6.4 k 2 M.I.^.~.K.OXOX@XXX X3X1X8X1X8X4X&X4X%X>X$X,X%XXX X .Q f % % r ",
"r.d.t.q.y.t.y.q.d.f.y.Z.b.l.l.h.h.#.< ; +.+.l @ + k Z.Z.d.y.M ; : B./.D.D.A.c.d.y.m.K.VXL.&X%X1X4X1X1X4X:X9X9X2X3X'.Y u d u d ) ",
"p.q.y.c.x.Z.Z.A.x.d.c.A.n.l.h.h.h.;.l < C M % + + l v.A.v.p.*.4 : :.(.D.(.D.v.e.d.t.v.A.A.v.x.u.G.K.@XVX#X+X<X! f s = t W W <X X",
"C.^._.DXDXFXDXFXB.i.Z.n.l.l.k.l.f.8.8 - D , 7 > 7 9 V.FX8.R.L 3 > D _.FXDXDXR.B.5.e.p.v.Z.x.t.q.c.c.c.f.t.M x 2 2 : v v J.oX.XS ",
"HXJXKXKXKXKXKXFXZ.x.b.l.l.n.Z.N.R.HXO.g g 9 8 $ 7 8 Y.JXQ.Y.Y.8 - S ~.~.N.S.y.>.d.q.d.d.k.d.f.y.x.y.i.C 4 > 3 > 5 g K U.U.U.U.9 ",
"!.E.!.!.!.).C.b.k.k.k.l.F.S.~.W.!.SXF p g 7 - g 7 8 P R.r.6.i.l ; l p.x.x.f.d.d.t.e.q.x.B.p.6.r.<.S g - - $ - S J Y.Y.Y.Q.E.P J ",
"B.N.B.N.d.k.g.h.g.g.k.c.Z.B.r.4.e.5., 4 @ @ c 1 @ h f.d.g.g.d.h 2 1 d.f.q.k.d.x.t.t.>.B.V.8.5.V c > 8 9 V k *.5.6.5.N.6.6.4.5.e.",
"x.f.k.g.h.h.h.h.l.g.k.d.f.d.d.g.g.a.M ; : < < m ; z 9.h.h.s.g.z < k 9.f.f.d.q.d.y.q.y.d.y.q.y.+.l 4 2 m 9.y.t.f.y.d.t.y.d.t.w.t.",
"d.k.g.h.h.h.h.g.d.q.q.d.g.g.g.g.h.s.z ; + 1 N z 1 1 0.f.f.x.t.c 2 4 ;.e.y.y.q.y.t.q.e.t.t.q.t.t.B -.d.x.f.d.q.f.q.f.g.y.,.VXOXXX",
"f.g.h.g.f.d.e.5.1.2.1.>.f.g.g.g.f.q.z + . < :.M > , d.c.v.x.d.+.2 k $.x.A.b.f.s.f.f.g.k.l.A.g.g.f.g.n.l.g.f.9.9.#.B Z ! T W w e ",
"g.h.g.y.q.5...P L L P 1.q.d.k.f.d.d.c ; : j g.+.; m 0.h.h.h.h.;.1 1 +.h.h.h.h.h.h.g.h.g.a.9.=.+.z N j m m 2 x < 2 5 q 0 e * e & ",
"M.p.B.N.8.R.R.N.e.5.B.6.y.x.f.q.f.f.#.=.N s.h.M < 1 a.h.h.h.h.;.h 1 N h.s.=.#.@.m j N 1 z : h : h : < < < : ; : 4 l = u R ^ i T ",
"S.S.S.S./.n.S.v.v.c.b.n.Z.D.k.c.p.Z.n.t.x.g.s.M 1 x ;.h.l.h.9.;.1 @ < j h z h 1 : : @ 1 : : 1 : < x j 1 h j @.B %.$.*.{ _ W R i ",
"n.b.n.n.Z.Z.Z.v.x.y.D./.F./.Z.f.Z.A.F.S.c.d.x.m 3 3 r.p.%.x l 1 . + + j < 1 : z j < z m #.j N =.9.9.Z.n.A.n.f.+.+.m l l 2 f i t ",
"x.p.v.d.v.p.x.i.d.i.p.v.V.v.r.x.y.x.x.c.d.f.g.M 2 4 a.m j ; ; z @ + @ < m N ;.9.s.g.h.h.g.h.h.h.q.i.:.&.c v z @ h ; > 6 : ; l 6 ",
"W.V.k.k.k.f.k.k.f.g.h.h.g.l.h.g.h.h.h.h.h.h.h.N < x @.m + @ : j ; : < s.g.h.h.h.g.g.h.g.g.0.0.@.c 2 1 < @ ; + : 4 v 9 G G G 2.T.",
"W.N.M.k.h.h.h.h.h.h.h.h.h.h.h.h.h.h.h.h.h.h.h.N : h 0.@.1 ; h h ; . ; z N x +.=.0.s.9.#.z z 1 : : : < < m x +.B =.0.r.i.t.r.e.y.",
"E.W.N.b.l.h.h.h.h.h.h.h.h.h.h.h.h.h.h.h.h.h.h.#.< z #.g.@.j < < @ . . : @ @ @ : ; @ @ + + + . : : j x M =.a.s.g.g.g.g.j.g.g.h.h.",
").~.~.S.n.l.l.f.l.k.l.l.l.l.l.g.h.n.n.n.k.g.k.N < < 9.h.h.0.9.N @ . . @ . @ . . . . . . . + + @ @ @ + j ; : < : z < 1 k < 1 ; j ",
"v.v.Z.B.b.n.M.7.3.T.SXSXSX!.T.U.Y.SX~.C.i.i.f.B < j =.g.s.+.B ; +     + + + + + . . . . + . . . . + .   . + . + @ .   . . # . X ",
"p.i.B.c.v.x.B.1.L 2.Y.....U.2.2.P 3.i.f.g.s.0.m @ + j < 1 .   . .     @ @ @ 1 1 < h ; < : : : : : : @ + + ; + + @ + @ @ + + . . ",
">.7.5.1.5.4.1.L L K K P L K H J D b z @.h N 1 : . . @ < @ + . +   .   + ; ; < < z M @.@.#.#.=.9.=.=.=.+.-.=.;.@.+.#.=.-.B V S D ",
"..U.P ..P P P L L J H S S 8 9 7 % 7 $ , 2 , , > . . ; < k : > @ . . . @ l 3 h h 3 x l V c B C ;.*.e.r.y.p.x.y.y.e.>.y.>.r.K P P "
};
