/* XPM */
static char *result[] = {
/* columns rows colors chars-per-pixel */
"64 64 158 2 ",
"   c #771E7D",
".  c #7E1D76",
"X  c #7C2C6D",
"o  c #712D78",
"O  c #693C77",
"+  c #3E7A76",
"@  c #7F4755",
"#  c #77475E",
"$  c #7B475A",
"%  c #76485E",
"&  c #715857",
"*  c #68754C",
"=  c #62665C",
"-  c #5C4C78",
";  c #5F4B75",
":  c #565973",
">  c #6E4A66",
",  c #6A4A69",
"<  c #674A6C",
"1  c #734962",
"2  c #615967",
"3  c #624B73",
"4  c #53696C",
"5  c #5A6864",
"6  c #4C7868",
"7  c #FF0000",
"8  c #F3010C",
"9  c #EB0214",
"0  c #E3031C",
"q  c #DB0424",
"w  c #D3052C",
"e  c #CB0634",
"r  c #C3073C",
"t  c #9E4436",
"y  c #96453E",
"u  c #9A443A",
"i  c #A24432",
"p  c #BF0740",
"a  c #BB0844",
"s  c #B3024C",
"d  c #B4094B",
"f  c #AB0354",
"g  c #AB0A54",
"h  c #A4055B",
"j  c #A30B5C",
"k  c #893856",
"l  c #9C0563",
"z  c #970C67",
"x  c #9B0C64",
"c  c #93066C",
"v  c #940D6B",
"b  c #861C6E",
"n  c #911B63",
"m  c #870777",
"M  c #8B0774",
"N  c #8C0D73",
"B  c #840E7B",
"V  c #85077A",
"C  c #811D73",
"Z  c #8E4645",
"A  c #86474E",
"S  c #8B464A",
"D  c #924542",
"F  c #834652",
"G  c #40BF3F",
"H  c #3DA456",
"J  c #2CB55D",
"K  c #3F876A",
"L  c #3B886E",
"P  c #3C9663",
"I  c #2E897B",
"U  c #358975",
"Y  c #388871",
"T  c #308978",
"R  c #2D9671",
"E  c #32A462",
"W  c #29B460",
"Q  c #20A772",
"!  c #5D844D",
"~  c #558555",
"^  c #598450",
"/  c #518559",
"(  c #618349",
")  c #628347",
"_  c #438765",
"`  c #1ED055",
"'  c #16D25D",
"]  c #1AD259",
"[  c #24C35A",
"{  c #2BC253",
"}  c #10EF4F",
"|  c #08EF55",
" . c #0DE25B",
".. c #12E156",
"X. c #10E159",
"o. c #07F156",
"O. c #08F155",
"+. c #00FF54",
"@. c #1CC461",
"#. c #14D260",
"$. c #3F06BF",
"%. c #3F09BF",
"&. c #7B0583",
"*. c #7D0F82",
"=. c #71058E",
"-. c #73098C",
";. c #791086",
":. c #731F81",
">. c #73108C",
",. c #6C0593",
"<. c #6C0993",
"1. c #65059A",
"2. c #650B9A",
"3. c #6B1194",
"4. c #64129B",
"5. c #5F2195",
"6. c #622F87",
"7. c #642090",
"8. c #5807A7",
"9. c #5A0DA5",
"0. c #5507AA",
"q. c #530BAC",
"w. c #5C13A3",
"e. c #5314AC",
"r. c #4C06B3",
"t. c #4C08B3",
"y. c #4206BD",
"u. c #4409BB",
"i. c #4C15B3",
"p. c #4316BC",
"a. c #3D4F97",
"s. c #36509E",
"d. c #3A509A",
"f. c #4E4D86",
"g. c #474E8E",
"h. c #4A4E8B",
"j. c #444F91",
"k. c #3706C7",
"l. c #3906C6",
"z. c #3406CB",
"x. c #3008CF",
"c. c #2517CE",
"v. c #3C17C3",
"b. c #3717C8",
"n. c #3318CC",
"m. c #2C06D3",
"M. c #2406DA",
"N. c #2C19D3",
"B. c #241ADB",
"V. c #1B05E4",
"C. c #1506EA",
"Z. c #1C1BE3",
"A. c #171BE8",
"S. c #0A05F5",
"D. c #0006FF",
"F. c #0016F4",
"G. c #0044D4",
"H. c #800F80",
/* pixels */
"N N N B B B B B ;.;.;.;.>.>.3.3.3.3.4.4.4.4.w.w.w.w.e.e.e.e.i.i.i.i.p.p.p.p.p.v.v.v.v.n.n.n.n.N.N.N.N.N.B.B.B.B.B.Z.Z.Z.Z.Z.A.A.",
"v N N N N B B ;.B ;.;.;.;.>.>.>.>.3.3.4.4.4.4.w.w.w.w.w.e.e.e.i.i.i.i.p.p.p.p.p.v.v.v.n.v.n.n.n.n.N.N.N.N.B.N.B.B.B.B.Z.Z.Z.A.Z.",
"v N N N N B B B B B ;.;.;.>.>.>.3.3.3.3.3.4.4.4.4.w.w.e.e.e.e.i.e.i.i.i.i.p.p.p.v.p.v.v.v.n.n.n.n.N.N.N.N.N.N.B.B.B.Z.Z.Z.Z.Z.Z.",
"v v N N N N B B B ;.B ;.;.;.;.>.>.>.3.3.3.4.4.4.4.w.w.w.w.w.e.e.e.i.i.i.i.p.p.p.p.p.v.v.v.n.v.n.n.n.n.N.N.N.B.B.B.B.B.B.Z.Z.Z.Z.",
"v v v N v N N B B B B ;.;.;.;.;.>.>.3.>.3.3.4.4.4.4.w.w.w.w.w.e.e.e.i.i.i.i.p.p.p.p.p.v.v.b.v.n.n.n.n.N.N.N.N.N.B.B.B.B.B.Z.Z.Z.",
"z z v v N N N N N B B B ;.H.;.;.>.>.>.3.3.3.3.3.4.4.4.w.w.w.w.e.e.e.e.e.i.i.i.i.p.p.p.v.v.v.v.v.v.n.n.n.n.N.N.N.N.N.B.B.B.B.B.Z.",
"x z v v v v N N N B B B B *.*.;.;.;.;.>.>.3.3.3.4.4.4.4.w.w.w.w.e.e.e.e.i.i.i.3.;.>.4.p.p.v.v.v.v.n.n.n.n.N.n.N.N.N.N.B.B.B.B.Z.",
"7 7 7 7 7 7 7 7 7 7 7 7 7 7 7 7 ;.;.a 7 7 7 7 7 7 7 7 7 7 7 g w.w.w.e.e.;.w 7 7 7 7 7 7 q g i.v.3.7 7 7 7 7 7 7 7 7 7 7 7 7 7 7 ",
"7 7 7 7 7 7 7 7 7 7 7 7 7 7 7 7 ;.;.p 7 7 7 7 7 7 7 7 7 7 7 g w.w.w.e.g 7 7 7 7 q w 8 7 7 7 >.v.3.7 7 7 7 7 7 7 7 7 7 7 7 7 7 7 ",
"a a d d d d r 7 7 p g g j j j j B ;.p 7 7 z v v v v N N N N ;.4.w.w.B 7 7 q *.i.e.i.i.w.v 9 >.v.i.3.3.3.3.3.4.d 7 7 4.4.w.w.w.w.",
"j x j x z z g 7 7 g N N N B B B ;.B p 7 7 ;.;.3.3.3.3.3.4.3.4.4.4.w.e 7 9 4.e.e.e.i.i.i.i.p.i.p.p.v.v.v.v.n.n.z 7 7 N.N.N.N.N.B.",
"j j j x x x d 7 7 g v N N N N B B B p 7 7 ;.;.>.;.>.>.3.3.4.4.4.4.w.9 7 e w.e.e.e.e.i.i.i.i.p.p.p.p.v.v.v.v.b.x 7 7 n.N.N.N.N.B.",
"g j j j x x d 7 7 d v v N N N B B B r 7 7 ;.;.;.>.>.3.3.3.3.4.3.4.4.8 7 w w.w.e.e.i.i.i.i.i.i.p.p.p.p.v.v.v.v.x 7 7 n.N.N.N.N.N.",
"g j j j j x a 7 7 g v v v N N N N B r 7 7 *.*.;.;.>.;.>.>.3.3.4.4.4.q 7 8 *.w.e.e.e.e.i.e.i.i.p.p.p.p.p.v.v.v.x 7 7 n.n.n.N.N.N.",
"g g j j j j d 7 7 d z z v v N N N B r 7 7 x x x z z v v v v 3.3.3.4.v 7 7 7 r z >.e.e.e.i.i.i.i.p.p.p.p.v.p.v.x 7 7 n.n.n.N.N.N.",
"g g g g j j a 7 7 d z v v v N v N N r 7 7 7 7 7 7 7 7 7 7 7 3.3.3.4.3.a 7 7 7 7 7 9 p N w.e.e.i.i.i.p.p.p.p.p.x 7 7 v.n.n.n.n.n.",
"g g g g j j a 7 7 d z x z v v v N N r 7 7 7 7 7 7 7 7 7 7 7 3.>.3.3.3.4.N e 7 7 7 7 7 7 9 *.e.i.i.i.i.p.p.p.v.x 7 7 n.v.n.n.n.N.",
"g d g g g j a 7 7 a x x x z v v v N r 7 7 B B B B ;.;.;.;.;.;.3.3.3.3.3.4.4.4.B g e 7 7 7 7   i.i.i.i.i.i.p.p.j 7 7 v.v.v.n.n.n.",
"d d d g g g p 7 7 d j x x z z v v N e 7 7 B B B B B B ;.;.;.>.>.>.3.3.3.3.3.4.4.4.w.4.a 7 7 0 e.e.i.i.i.p.p.p.j 7 7 v.v.v.b.n.n.",
"d d g d g g p 7 7 a j x x x x z z v e 7 7 N N B B B ;.H.;.;.;.>.>.>.>.3.3.4.3.4.4.4.w.w.e 7 7 ;.e.i.i.i.i.i.p.j 7 7 p.v.v.v.v.v.",
"d d d d d g r 7 7 p j j j x x z z v e 7 7 N N N B B B ;.*.;.;.;.>.>.>.3.3.3.3.4.4.4.4.w.z 7 7 H.e.e.i.i.i.i.i.j 7 7 p.v.v.v.v.b.",
"a a d d g d r 7 7 p j j j j x x z v e 7 7 N N N N B B B B B *.;.*.>.>.>.3.3.3.3.4.4.4.4.j 7 7 B e.e.e.e.e.i.i.j 7 7 p.p.v.v.v.v.",
"a a d d d d r 7 7 p j j j j j x x z e 7 7 v v N N N B B B ;.*.;.;.;.z >.>.3.3.3.3.3.4.4.e 7 7 w.w.e.e.e.e.i.i.j 7 7 p.p.p.v.v.v.",
"p a a a d d r 7 7 r g g j j j x j x e 7 7 g g g g j g j j j z ;.*.*.7 0 g ;.3.3.3.3.;.e 7 7 r w.w.w.e.e.e.i.e.j 7 7 i.p.p.p.v.v.",
"a a a a d d e 7 7 r g g j j j j j x e 7 7 7 7 7 7 7 7 7 7 7 0 B *.;.7 7 7 7 9 q q 9 7 7 7 0 3.w.w.w.w.e.e.e.i.j 7 7 p.i.p.p.p.p.",
"r p a a a a e 7 7 r g g g g g j j x w 7 7 7 7 7 7 7 7 7 7 7 0 *.*.*.j e 9 7 7 7 7 7 7 9 j 3.4.4.w.w.w.w.w.e.e.g 7 7 i.i.p.p.p.p.",
"+.+.+.+.+.+.+.+.+.+.+.+.+.+.+.+.j j / +.+.+.+.+.+.+.+.+.+.+._ B B B ;.;.- J G G G G } +.#.R 5.4.h.+.+.+.+.+.+.+.+.+.+.+.+.+.+.+.",
"+.+.+.+.+.+.+.+.+.+.+.+.+.+.+.+.j j / +.+.+.+.+.+.+.+.+.+.+._ B B B B K +.+.+.+.' @.o.+.+.+.h.4.h.+.+.+.+.+.+.+.+.+.+.+.+.+.+.+.",
"y D D D Z Z * +.+.* A A F F F @ g j / +.+.# # % 1 1 1 , , , X N N B 3 +.+.' - ;.>.>.>.6.+ X.f.4.7.h.h.h.h.j.j.Q +.+.d.d.d.d.d.s.",
"e e r r p r Z +.+.S a d d d g g g g / +.+.j x x z v z v v N N N N B J +.X.  ;.;.;.;.>.>.>.>.7.4.4.4.4.w.w.w.w.I +.+.e.e.i.i.i.i.",
"e r r r r r Z +.+.S a d d d g g g g ~ +.+.j j x x z z z v v N N N B X.+.J ;.B ;.;.;.>.>.>.3.3.3.3.4.4.4.w.4.w.T +.+.e.e.e.i.i.i.",
"e e e e r r D +.+.S a d d d d d g g ~ +.+.j j x j x x z z v v N N N o.+.[ B B B ;.;.;.;.>.>.>.>.3.3.3.4.4.4.w.T +.+.e.e.e.e.i.i.",
"w e e e e r D +.+.Z a a d d d d d g ^ +.+.j j j j j x x z z v v v N [ +.| O B B H.*.;.;.;.>.>.3.>.3.3.4.4.4.4.T +.+.e.w.e.e.e.i.",
"w e e e e e D +.+.D p a p a d d d d ^ +.+.$ F $ 1 $ 1 1 1 1 v v v v 2 +.+.+.E 4 o *.*.;.;.>.>.>.3.3.>.3.3.4.4.U +.+.w.w.e.e.e.e.",
"w e e e e r y +.+.D p p a a d a d g ^ +.+.+.+.+.+.+.+.+.+.+.z z v v N P +.+.+.+.+.X.E : :.;.;.>.>.>.3.3.3.4.4.U +.+.w.w.w.e.e.e.",
"w w w e e e y +.+.D r p p a a d d d ^ +.+.+.+.+.+.+.+.+.+.+.x z v v v v , J +.+.+.+.+.+.X.- >.;.>.>.>.3.3.3.4.T +.+.w.w.w.w.w.e.",
"w w w w e e y +.+.D r r p p a a a d ^ +.+.d g g g j j j j x x x z z v v N v N < _ W +.+.+.+.- ;.>.>.>.>.3.3.3.U +.+.4.4.w.w.w.e.",
"w w w w w e u +.+.D r r r p p p a a ^ +.+.g g g g g g j j j x x x z z v v N N N N B C P +.+. .;.;.;.>.>.>.3.3.U +.+.4.4.w.w.w.w.",
"q w w w w w u +.+.y e r r r p p a a ( +.+.d d d g g g j j j j j x x z z v N v N N N N B W +.+.O ;.;.;.>.>.>.3.U +.+.4.4.4.4.w.w.",
"q q w w w w u +.+.y e e r r r p p p ! +.+.d d g d g g g j j j j x x x z z v v v N N N B 4 +.+.; *.;.;.>.>.>.>.U +.+.4.4.4.4.4.w.",
"q q w q w w i +.+.u e e r e r r p p ( +.+.d d d g g g g f j j j j x x x x v z v v N N N 6 +.+.3 B ;.;.;.;.>.>.Y +.+.3.4.4.4.4.4.",
"q q q q w w i +.+.u e e e r e r r p ( +.+.d a d d d d g g g j j j j $ x x z v v v N N N J +.+.B B H.B ;.;.>.;.Y +.+.3.4.3.4.4.4.",
"0 q q q q w i +.+.t w e e e e r r r ( +.+.Z S S S S F F F F k j j j +.` = n x x z v b J +.+.H B B B ;.*.*.;.;.L +.+.>.3.3.4.4.4.",
"0 q q q q w i +.+.t e e e e e r r r ) +.+.+.+.+.+.+.+.+.+.+.{ g j g +.+.+.+.' [ [ ..+.+.+.] . B B B B *.*.;.;.L +.+.>.3.3.3.3.4.",
"0 0 0 q q q i +.+.t w w w e e e e r ) +.+.+.+.+.+.+.+.+.+.+.{ g g g & H ..+.+.+.+.+.+.X.5 b N N B N B B H.*.;.K +.+.>.>.>.<.3.3.",
"D.D.D.D.D.D.D.D.D.D.D.D.D.D.D.D.e e 1.D.D.D.D.D.D.D.D.D.D.D.8.g g g h j &.c.G.G.G.G.F.D.V.u.N N 2.D.D.D.D.D.D.D.D.D.D.D.D.D.D.D.",
"D.D.D.D.D.D.D.D.D.D.D.D.D.D.D.D.e e 1.D.D.D.D.D.D.D.D.D.D.D.8.d g g g 0.D.D.D.D.V.M.S.D.D.D.<.N 2.D.D.D.D.D.D.D.D.D.D.D.D.D.D.D.",
"g f f f f f &.D.D.&.h h l l l l e e 1.D.D.c c c v M M M m m x d g g H.D.D.M.*.x j x x m 0.C.<.v N <.2.2.2.2.2.x.D.D.9.9.9.9.q.e.",
"9 0 0 0 0 0 h D.D.h q w w w w w e e 1.D.D.r r r r p p a a d d d d g k.D.C.x j j j x x x z z M v v N N N N B B u.D.D.;.;.;.;.>.3.",
"9 0 9 0 0 0 f D.D.h q q q w w w w e ,.D.D.e r r r r p p p d d d d d C.D.z.g g j j j j x x z v v v v N N N N B u.D.D.B ;.;.;.;.>.",
"9 0 9 0 0 0 f D.D.f q q q w w w w w 1.D.D.e e r r r p p p a a a d d S.D.m.g g g j j j x x x x z v v v N N N B u.D.D.B H.*.;.;.>.",
"9 9 9 9 9 0 f D.D.h q q q q q w w w ,.D.D.e e r r r r r p a a d d a m.D.S.M g g g g j j j x x x z v v v N N N u.D.D.B ;.*.*.;.;.",
"9 9 9 9 9 0 f D.D.f 0 q q q q q w w ,.D.D.l l l l c c c c M p a a a *.D.D.D.y.<.v g j j j x x x z z z v N v N u.D.D.B B ;.;.*.;.",
"8 9 9 9 9 9 f D.D.h 0 q q q q q q w ,.D.D.D.D.D.D.D.D.D.D.D.p a a a a r.D.D.D.D.D.C.y.-.x j j x x x z v v v N u.D.D.N B B B ;.*.",
"8 9 9 9 9 9 f D.D.f 0 0 q q q q q w ,.D.D.D.D.D.D.D.D.D.D.D.r p a a a d M z.D.D.D.D.D.D.C.&.j j x x x z v v N t.D.D.B B B B B H.",
"8 9 8 9 9 9 f D.D.f 0 0 0 0 q q q q ,.D.D.w w e e e e e e r r r p p p a a d d m 8.z.D.D.D.D.*.j j x x x z v z t.D.D.N N B B B B ",
"8 9 8 9 8 9 s D.D.f 0 0 0 0 q q q q ,.D.D.w w w w e e e r e r r r p p a a d d d d d j r.D.D.C.j x j x x z z v t.D.D.N N N B B B ",
"8 8 8 8 9 9 f D.D.f 9 0 0 0 0 0 0 q ,.D.D.q w w e w w e e r e r r p p p a a a a d d d g z.D.D.M g j j x x x z t.D.D.N N N N N B ",
"8 8 8 9 8 9 s D.D.f 9 0 9 0 0 q q q ,.D.D.w q q w w e e e e r e r r r p p a a d d d d d ,.D.D.&.j j x j x x x t.D.D.v N N N N B ",
"8 8 8 8 8 8 s D.D.s 9 9 0 0 0 0 0 0 =.D.D.q w w w w w w e e e e r r r r p p a a d d d d 1.D.D.*.g j g j x j x t.D.D.v v N N N N ",
"8 8 8 8 8 8 s D.D.s 9 9 9 9 0 0 0 0 =.D.D.q q q w w w w w e e e e r c r r r p a a d d d l.D.D.g g g j j j x j t.D.D.v v v N v N ",
"7 8 8 8 8 8 s S.D.s 9 9 9 0 9 0 0 0 =.D.D.h h h h h l l l l f e e e D.M.&.d p p a a h l.D.D.y.g g g g j j j j t.D.D.z z v v v N ",
"8 8 7 8 8 8 s D.D.s 8 9 9 9 0 9 0 0 =.D.D.D.D.D.D.D.D.D.D.D.z.e e e D.D.D.D.C.x.x.V.D.D.D.M.j d g g g g j j x q.D.D.x z v v v N ",
"7 7 7 8 8 8 s D.D.s 9 9 9 9 9 9 0 9 =.D.D.D.D.D.D.D.D.D.D.D.z.w e e M r.V.D.D.D.D.D.D.C.-.f d d d g g g g j g q.D.D.x x z v v v "
};
